<svg enable-background="new 0 0 512 512" viewBox="0 0 512 512" xmlns="http://www.w3.org/2000/svg" xmlns:xlink="http://www.w3.org/1999/xlink"><clipPath id="a"><path d="m0 0h512v512h-512z"/></clipPath><g clip-path="url(#a)"><path d="m512 0h-512v512h512z" fill="#e72264"/><path d="m255.9 77c-73.5 0-133 59.5-133 132.9 0 1.4 0 2.9.1 4.3v127.7 13 32.1.7.7.6c.7 24.7 20.9 44.4 45.8 44.4s45.3-19.8 46-44.4v-47.1h38 3.1c73.5 0 133-58.7 133-132.1.1-73.3-59.5-132.8-133-132.8zm0 173.2c-8.1 0-28.7 0-37.3 0h-3.8v-40.3c0-22.6 18.5-40.9 41.1-40.9s40.9 18.3 40.9 40.9-18.3 40.3-40.9 40.3z" fill="#fff"/><g fill-opacity=".5"><path d="m167.7 341.9h47.1v47.1h-.2c-.7 24.7-20.9 44.4-45.8 44.4s-45.1-19.8-45.8-44.4v-.6c0-.2 0-.5 0-.7s0-.5 0-.7v-3.3c1.3-22.1 22.2-41.8 44.7-41.8z" fill="#1d1d1b" opacity=".15"/><g opacity=".05"><path d="m123 285.3v56.7c0-49.9 42-91 91.8-91.7v-18.1c-37 3.8-69.8 23.8-91.8 53.1z" opacity=".5"/><path d="m123.1 384.6c10.8-7.9 24-12.6 38.1-12.6h53.7v-30h-46c-24.3-.1-44.2 18.7-45.8 42.6z"/></g><g opacity=".05"><path d="m214.8 250.2v-16.4c-37.4 3.7-70.3 24-91.8 53.9v54.2c0-49.9 42-91 91.8-91.7z" opacity=".5"/><path d="m168.9 341.9c-23.6 0-43.1 17.8-45.6 40.7 10.8-8.4 24.2-13.4 38.7-13.4h52.9v-27.3z"/></g><g opacity=".05"><path d="m214.8 250.2v-14.8c-37.7 3.4-70.9 24.3-91.8 54.8v51.6c0-49.8 42-90.9 91.8-91.6z" opacity=".5"/><path d="m168.9 341.9c-23 0-42 16.8-45.4 38.8 10.8-8.9 24.3-14.2 39.1-14.2h52.2v-24.6z"/></g><g opacity=".05"><path d="m214.8 250.2v-13.1c-38.1 3.1-71.5 24.6-91.8 55.9v48.9c0-49.9 42-91 91.8-91.7z" opacity=".5"/><path d="m168.9 341.9c-22.3 0-40.9 15.9-45.1 36.9 10.7-9.4 24.4-15.1 39.5-15.1h51.6v-21.9h-46z"/></g><g opacity=".05"><path d="m214.8 250.2v-11.4c-38.5 2.9-72.2 25-91.8 57.1v46.1c0-50 42-91.1 91.8-91.8z" opacity=".5"/><path d="m168.9 341.9c-21.6 0-39.8 14.9-44.6 35 10.5-9.9 24.5-15.9 39.7-15.9h50.8v-19.1z"/></g><g opacity=".05"><path d="m214.8 250.2v-9.8c-39 2.6-73 25.4-91.8 58.5v43c0-49.9 42-91 91.8-91.7z" opacity=".5"/><path d="m168.9 341.9c-21 0-38.6 14-44.1 33.1 10.3-10.4 24.4-16.8 39.9-16.8h50.2v-16.4h-46z"/></g><g opacity=".05"><path d="m214.8 250.2v-8.1c-39.6 2.2-74 26-91.8 60.1v39.6c0-49.8 42-90.9 91.8-91.6z" opacity=".5"/><path d="m168.9 341.9c-20.2 0-37.4 13.1-43.5 31.3 10.1-10.9 24.3-17.6 40-17.6h49.5v-13.7z"/></g><g opacity=".05"><path d="m214.8 250.2v-6.4c-40.4 1.9-75.2 26.7-91.8 62.1v35.9c0-49.8 42-90.9 91.8-91.6z" opacity=".5"/><path d="m168.9 341.9c-19.6 0-36.2 12.2-42.9 29.4 9.8-11.3 24.1-18.5 40.1-18.5h48.8v-10.9z"/></g><g opacity=".05"><path d="m214.8 250.2v-4.6c-41.3 1.5-76.7 27.8-91.8 64.7v31.6c0-49.9 42-91 91.8-91.7z" opacity=".5"/><path d="m168.9 341.9c-18.8 0-35 11.3-42.1 27.6 9.5-11.8 23.9-19.4 40-19.4h48.1v-8.2z"/></g></g></g></svg>